<svg xmlns="http://www.w3.org/2000/svg" xmlns:xlink="http://www.w3.org/1999/xlink" width="49" height="43" viewBox="0 0 49 43"><defs><path id="a" d="M745.25 6539.38v11.53a2.05 2.05 0 0 1-1.98 1.89h-2.13a5.5 5.5 0 0 1-5.51 4.7 5.5 5.5 0 0 1-5.51-4.7H713.3a5.5 5.5 0 0 1-5.5 4.7 5.5 5.5 0 0 1-5.52-4.7h-.53c-1.04 0-1.91-.87-1.91-1.89v-32.63c0-.47.32-.78.8-.78h8.74c.32 0 .56.15.72.39a.7.7 0 0 1 0 .78l-2.19 3.72 3.62-.97c.16-.08.32 0 .48 0l2.24.74a.7.7 0 0 1 .36.12l4.56 1.5a.6.6 0 0 1 .31.15l4.78 4.7c.23.24.31.48.23.79l-1.66 5.74 3.26 5.88v-9.66c0-1.18.95-2.2 2.22-2.2h7.32c.72 0 1.43.32 1.99.87l6.92 7.53c.47.47.71 1.1.71 1.8zm-8.83-8.23a1.03 1.03 0 0 0-.8-.32h-3.97v7.85h11.61zm-14.23 6.22l-.88 3.03a.7.7 0 0 1-.71.55l-7.16.78c0 .08-.08.08-.08.08v1.57h12.15zm-15.2 6.01v-3.81l-2.38-.88v4.7zm1.6 0h3.18v-7.06a1.54 1.54 0 0 0-.83-1.38 1.6 1.6 0 0 0-2.35 1.38zm9.94-18.2l-3.84-1.24-3.42 9.44a3.15 3.15 0 0 1 2.1 2.94v3.85h.07l6.44-.71 2.94-10.04zm-11.87-.8a.91.91 0 0 1-.22.1l-2.78.78-2.12 7.02 3.55 4.9 1.9.71v-1.57a3.16 3.16 0 0 1 2.63-3.08l3.54-9.8-1.4-.45zm-5.23 2.56l.8-2.62a.95.95 0 0 1 .55-.55l2.95-.8 2.3-3.9h-6.6zm0 16.44h1.6v-6.35l-1.6-2.2zm10.34 8.63c0-2.2-1.75-3.92-3.98-3.92a3.91 3.91 0 0 0-3.97 3.92c0 2.2 1.75 3.92 3.97 3.92a3.91 3.91 0 0 0 3.98-3.92zm27.84 0c0-2.2-1.75-3.92-3.98-3.92a3.91 3.91 0 0 0-3.98 3.92c0 2.2 1.75 3.92 3.98 3.92a3.91 3.91 0 0 0 3.98-3.92zm3.97-1.1v-6.74h-3.97c-.48 0-.8-.32-.8-.79 0-.47.32-.78.8-.78h3.97v-2.36h-12.17c-.71 0-1.35-.62-1.35-1.33v-8.08h-1.75a.62.62 0 0 0-.63.63v12.5c.04.14.04.28 0 .42v.57h-26.25v5.96c0 .16.16.32.32.32h.53a5.49 5.49 0 0 1 5-4.69h.05l.2-.01a5.97 5.97 0 0 1 .53 0l.2.01h.06a5.49 5.49 0 0 1 4.98 4.69h16.76a5.54 5.54 0 0 1 5.53-4.7l.04-.01a5.5 5.5 0 0 1 5.51 4.7h2.12c.16 0 .32-.15.32-.3z"/></defs><use fill="#fff" xlink:href="#a" transform="translate(-698 -6516)"/></svg>