<svg xmlns="http://www.w3.org/2000/svg" xmlns:xlink="http://www.w3.org/1999/xlink" width="53" height="53" viewBox="0 0 53 53"><defs><path id="a" d="M748 6466c0 6.68-2.6 12.96-7.32 17.68A24.84 24.84 0 0 1 723 6491c-6.68 0-12.96-2.6-17.68-7.32A24.84 24.84 0 0 1 698 6466c0-6.68 2.6-12.96 7.32-17.68 4.72-4.72 11-7.32 17.68-7.32.2 0 .38.08.52.21l24.26 24.27a.74.74 0 0 1 .22.52zm-21.92-20.15c.56 1.5.88 2.93 1.18 4.27.59 2.62 1.14 5.1 3.33 7.56 1.92 2.16 4.52 2.88 7.52 3.72 1.62.44 3.37.93 5.2 1.68zm20.45 20.54c-3.14-2-6.14-2.84-8.8-3.58-1.36-.38-2.63-.73-3.82-1.2v9.92h4.75c.3 0 .58.2.68.47.12.3.01.66-.24.85l-15.66 11.74c-.26.2-.62.2-.88 0l-15.66-11.74a.75.75 0 0 1-.25-.82c.1-.3.38-.5.7-.5h4.74v-11.4a.73.73 0 1 1 1.47 0v12.13c0 .4-.33.74-.74.74h-3.27l13.45 10.09 13.45-10.1h-3.27a.73.73 0 0 1-.74-.73v-11.31a10.27 10.27 0 0 1-2.94-2.3 13.38 13.38 0 0 1-2.66-4.44h-13.28v2.5a.73.73 0 0 1-1.47 0v-3.23c0-.41.33-.74.73-.74h13.56a49 49 0 0 1-.55-2.3c-.57-2.52-1.15-5.11-3.2-7.97a23.56 23.56 0 0 0-23.16 23.53 23.56 23.56 0 0 0 23.53 23.53 23.56 23.56 0 0 0 23.53-23.14zm-18.31-3.79l-9.4 9.4a.73.73 0 1 1-1.04-1.04l9.4-9.4a.73.73 0 1 1 1.04 1.04zm1 7.31a2.3 2.3 0 1 1-4.61 0 2.3 2.3 0 0 1 4.6 0zm-1.47 0a.83.83 0 1 0-1.67 0 .83.83 0 0 0 1.67 0zm-6.36-6.26a2.3 2.3 0 1 1-4.6 0 2.3 2.3 0 0 1 4.6 0zm-1.47 0a.83.83 0 1 0-1.67 0 .83.83 0 0 0 1.67 0z"/></defs><use fill="#fff" xlink:href="#a" transform="translate(-696 -6439)"/></svg>